<mxfile host="app.diagrams.net" modified="2024-02-04T17:39:58.662Z" agent="Mozilla/5.0 (Windows NT 10.0; Win64; x64) AppleWebKit/537.36 (KHTML, like Gecko) Chrome/120.0.0.0 Safari/537.36 Edg/120.0.0.0" version="22.1.18" etag="_ZdqnR7dxW4X41pcndOV" type="github">
  <diagram name="PÃ¡gina-1" id="1QB3-peY2y_upOSBTare">
    <mxGraphModel>
      <root>
        <mxCell id="0" />
        <mxCell id="1" parent="0" />
      </root>
    </mxGraphModel>
  </diagram>
</mxfile>
